<?xml version="1.0" encoding="UTF-8"?>
<svg xmlns="http://www.w3.org/2000/svg" xmlns:xlink="http://www.w3.org/1999/xlink" width="24px" height="24px" viewBox="0 0 24 24" version="1.1">
<g id="surface1">
<path style=" stroke:none;fill-rule:nonzero;fill:rgb(100%,95.294118%,90.196079%);fill-opacity:1;" d="M 20.949219 12.589844 C 23.535156 14.488281 24.183594 17.089844 22.390625 18.40625 C 20.988281 19.433594 18.507812 19.371094 16.253906 18.382812 C 15.78125 18.175781 15.316406 17.929688 14.878906 17.640625 C 14.734375 17.546875 14.59375 17.449219 14.453125 17.347656 C 12.855469 16.175781 12 14.738281 12 13.496094 C 12 12.726562 12.328125 12.035156 13.015625 11.53125 C 13.144531 11.4375 13.28125 11.351562 13.425781 11.277344 C 15.3125 10.292969 18.546875 10.828125 20.949219 12.589844 Z M 20.949219 12.589844 "/>
<path style=" stroke:none;fill-rule:nonzero;fill:rgb(40.000001%,40.000001%,40.000001%);fill-opacity:1;" d="M 14.878906 17.640625 L 14.863281 17.664062 L 9.085938 17.664062 C 8.652344 17.941406 8.203125 18.183594 7.738281 18.382812 L 7.738281 18.386719 C 7.890625 18.957031 8.09375 19.488281 8.347656 19.96875 L 8.414062 19.960938 L 15.578125 19.960938 L 15.644531 19.96875 C 15.898438 19.488281 16.105469 18.953125 16.253906 18.382812 C 15.78125 18.175781 15.316406 17.929688 14.878906 17.640625 Z M 14.878906 17.640625 "/>
<path style=" stroke:none;fill-rule:nonzero;fill:rgb(94.117647%,76.862746%,9.803922%);fill-opacity:1;" d="M 15.578125 19.960938 L 15.644531 19.96875 C 14.820312 21.539062 13.492188 22.558594 11.996094 22.558594 C 10.5 22.558594 9.175781 21.539062 8.347656 19.96875 L 8.414062 19.960938 Z M 15.578125 19.960938 "/>
<path style=" stroke:none;fill-rule:nonzero;fill:rgb(94.117647%,76.862746%,9.803922%);fill-opacity:1;" d="M 14.878906 17.640625 L 14.863281 17.664062 L 9.085938 17.664062 C 9.242188 17.5625 9.394531 17.457031 9.542969 17.347656 C 11.140625 16.175781 12 14.738281 12 13.496094 C 12 14.738281 12.855469 16.175781 14.453125 17.347656 C 14.59375 17.449219 14.734375 17.546875 14.878906 17.640625 Z M 14.878906 17.640625 "/>
<path style=" stroke:none;fill-rule:nonzero;fill:rgb(94.117647%,76.862746%,9.803922%);fill-opacity:1;" d="M 10.628906 5.8125 C 11.039062 5.605469 11.503906 5.488281 11.996094 5.488281 C 13.671875 5.488281 15.035156 6.847656 15.035156 8.527344 C 15.035156 9.699219 14.371094 10.714844 13.398438 11.222656 C 12.976562 11.441406 12.5 11.5625 11.996094 11.5625 C 11.492188 11.5625 11.019531 11.441406 10.601562 11.222656 C 9.625 10.71875 8.957031 9.699219 8.957031 8.527344 C 8.957031 7.339844 9.636719 6.3125 10.628906 5.8125 Z M 10.628906 5.8125 "/>
<path style=" stroke:none;fill-rule:nonzero;fill:rgb(100%,95.294118%,90.196079%);fill-opacity:1;" d="M 10.984375 11.53125 C 11.667969 12.035156 12 12.726562 12 13.496094 C 12 14.738281 11.140625 16.175781 9.542969 17.347656 C 9.394531 17.457031 9.242188 17.5625 9.085938 17.664062 C 8.652344 17.941406 8.203125 18.183594 7.738281 18.382812 C 5.488281 19.367188 3.011719 19.433594 1.609375 18.40625 C -0.183594 17.089844 0.460938 14.488281 3.050781 12.589844 C 5.453125 10.828125 8.6875 10.292969 10.570312 11.277344 C 10.71875 11.351562 10.855469 11.4375 10.984375 11.53125 Z M 10.984375 11.53125 "/>
<path style=" stroke:none;fill-rule:nonzero;fill:rgb(0%,0%,0%);fill-opacity:1;" d="M 11.996094 12.15625 C 11.414062 12.15625 10.839844 12.015625 10.328125 11.75 C 9.117188 11.125 8.367188 9.886719 8.367188 8.527344 C 8.367188 7.148438 9.128906 5.90625 10.359375 5.285156 C 10.863281 5.03125 11.429688 4.894531 11.996094 4.894531 C 14 4.894531 15.625 6.523438 15.625 8.527344 C 15.625 9.886719 14.878906 11.121094 13.671875 11.746094 C 13.15625 12.015625 12.578125 12.15625 11.996094 12.15625 Z M 11.996094 6.082031 C 11.609375 6.082031 11.238281 6.167969 10.894531 6.34375 C 10.066406 6.761719 9.550781 7.597656 9.550781 8.527344 C 9.550781 9.441406 10.058594 10.273438 10.871094 10.695312 C 11.222656 10.878906 11.597656 10.96875 11.996094 10.96875 C 12.394531 10.96875 12.773438 10.878906 13.121094 10.695312 C 13.933594 10.273438 14.441406 9.441406 14.441406 8.527344 C 14.441406 7.179688 13.34375 6.082031 11.996094 6.082031 Z M 11.996094 6.082031 "/>
<path style=" stroke:none;fill-rule:nonzero;fill:rgb(0%,0%,0%);fill-opacity:1;" d="M 11.996094 23.148438 C 10.339844 23.148438 8.78125 22.0625 7.824219 20.246094 C 7.546875 19.71875 7.324219 19.144531 7.164062 18.535156 C 7.082031 18.21875 7.273438 17.894531 7.589844 17.8125 C 7.90625 17.726562 8.230469 17.917969 8.3125 18.234375 C 8.449219 18.757812 8.640625 19.246094 8.875 19.691406 C 9.632812 21.136719 10.769531 21.964844 11.996094 21.964844 C 13.203125 21.964844 14.371094 21.113281 15.121094 19.691406 C 15.355469 19.242188 15.542969 18.753906 15.679688 18.230469 C 15.761719 17.914062 16.085938 17.726562 16.402344 17.808594 C 16.722656 17.890625 16.910156 18.214844 16.828125 18.53125 C 16.667969 19.140625 16.449219 19.714844 16.171875 20.242188 C 15.214844 22.0625 13.652344 23.148438 11.996094 23.148438 Z M 11.996094 23.148438 "/>
<path style=" stroke:none;fill-rule:nonzero;fill:rgb(0%,0%,0%);fill-opacity:1;" d="M 19.703125 19.746094 C 18.542969 19.746094 17.269531 19.472656 16.015625 18.925781 C 15.507812 18.703125 15.015625 18.4375 14.554688 18.136719 C 14.402344 18.039062 14.25 17.933594 14.105469 17.828125 C 12.414062 16.589844 11.40625 14.96875 11.40625 13.496094 C 11.40625 12.515625 11.851562 11.648438 12.664062 11.054688 C 12.8125 10.945312 12.976562 10.84375 13.148438 10.75 C 14.183594 10.210938 15.582031 10.058594 17.09375 10.316406 C 18.578125 10.574219 20.070312 11.210938 21.300781 12.109375 C 21.5625 12.304688 21.621094 12.675781 21.425781 12.941406 C 21.234375 13.203125 20.863281 13.261719 20.597656 13.066406 C 18.425781 11.472656 15.394531 10.917969 13.699219 11.800781 C 13.578125 11.867188 13.464844 11.9375 13.363281 12.011719 C 12.851562 12.386719 12.59375 12.886719 12.59375 13.496094 C 12.59375 14.59375 13.417969 15.855469 14.804688 16.871094 C 14.933594 16.964844 15.066406 17.054688 15.199219 17.144531 C 15.605469 17.410156 16.042969 17.640625 16.492188 17.839844 C 18.613281 18.769531 20.84375 18.804688 22.039062 17.925781 C 22.945312 17.261719 22.890625 16.34375 22.6875 15.6875 C 22.589844 15.375 22.765625 15.042969 23.078125 14.945312 C 23.390625 14.847656 23.722656 15.023438 23.820312 15.335938 C 24.265625 16.761719 23.871094 18.054688 22.738281 18.882812 C 21.957031 19.460938 20.890625 19.746094 19.703125 19.746094 Z M 19.703125 19.746094 "/>
<path style=" stroke:none;fill-rule:nonzero;fill:rgb(0%,0%,0%);fill-opacity:1;" d="M 22.324219 14.460938 C 22.152344 14.460938 21.984375 14.386719 21.867188 14.246094 C 21.816406 14.183594 21.761719 14.117188 21.703125 14.054688 C 21.484375 13.8125 21.503906 13.4375 21.746094 13.21875 C 21.988281 13 22.367188 13.019531 22.585938 13.261719 C 22.652344 13.335938 22.71875 13.414062 22.78125 13.488281 C 22.988281 13.742188 22.953125 14.113281 22.703125 14.324219 C 22.589844 14.414062 22.457031 14.460938 22.324219 14.460938 Z M 22.324219 14.460938 "/>
<path style=" stroke:none;fill-rule:nonzero;fill:rgb(0%,0%,0%);fill-opacity:1;" d="M 4.292969 19.746094 C 3.105469 19.746094 2.042969 19.460938 1.257812 18.882812 C 0.445312 18.289062 0 17.421875 0 16.441406 C 0 14.96875 1.007812 13.347656 2.699219 12.109375 C 3.925781 11.210938 5.421875 10.574219 6.902344 10.316406 C 8.414062 10.058594 9.816406 10.210938 10.847656 10.75 C 11.023438 10.84375 11.183594 10.945312 11.335938 11.054688 C 12.144531 11.648438 12.59375 12.515625 12.59375 13.496094 C 12.59375 14.96875 11.582031 16.589844 9.894531 17.828125 C 9.734375 17.945312 9.574219 18.054688 9.410156 18.160156 C 9.402344 18.164062 9.398438 18.167969 9.390625 18.171875 C 8.945312 18.457031 8.46875 18.714844 7.976562 18.929688 C 6.726562 19.476562 5.453125 19.746094 4.292969 19.746094 Z M 8.324219 11.382812 C 6.742188 11.382812 4.875 11.984375 3.398438 13.066406 C 2.015625 14.082031 1.1875 15.34375 1.1875 16.441406 C 1.1875 17.050781 1.445312 17.550781 1.960938 17.925781 C 3.152344 18.804688 5.378906 18.769531 7.5 17.839844 C 7.941406 17.648438 8.367188 17.421875 8.765625 17.164062 C 8.769531 17.160156 8.777344 17.15625 8.78125 17.152344 C 8.921875 17.0625 9.058594 16.96875 9.191406 16.871094 C 10.578125 15.855469 11.40625 14.59375 11.40625 13.496094 C 11.40625 12.886719 11.144531 12.386719 10.632812 12.011719 C 10.53125 11.9375 10.417969 11.867188 10.296875 11.800781 C 9.75 11.519531 9.070312 11.382812 8.324219 11.382812 Z M 8.324219 11.382812 "/>
<path style=" stroke:none;fill-rule:nonzero;fill:rgb(0%,0%,0%);fill-opacity:1;" d="M 10.628906 6.40625 C 10.347656 6.40625 10.117188 6.214844 10.050781 5.957031 L 8.820312 1.605469 C 8.730469 1.289062 8.914062 0.960938 9.230469 0.871094 C 9.546875 0.78125 9.875 0.964844 9.960938 1.28125 L 11.199219 5.652344 C 11.214844 5.703125 11.222656 5.757812 11.222656 5.8125 C 11.222656 6.140625 10.957031 6.40625 10.628906 6.40625 Z M 10.628906 6.40625 "/>
<path style=" stroke:none;fill-rule:nonzero;fill:rgb(0%,0%,0%);fill-opacity:1;" d="M 13.410156 6.40625 C 13.355469 6.40625 13.300781 6.398438 13.246094 6.386719 C 12.929688 6.296875 12.746094 5.96875 12.835938 5.652344 L 14.074219 1.28125 C 14.160156 0.964844 14.488281 0.78125 14.804688 0.871094 C 15.121094 0.960938 15.304688 1.289062 15.214844 1.605469 L 13.980469 5.976562 C 13.90625 6.238281 13.667969 6.40625 13.410156 6.40625 Z M 13.410156 6.40625 "/>
<path style=" stroke:none;fill-rule:nonzero;fill:rgb(0%,0%,0%);fill-opacity:1;" d="M 15.578125 20.554688 L 8.414062 20.554688 C 8.085938 20.554688 7.820312 20.289062 7.820312 19.960938 C 7.820312 19.632812 8.085938 19.371094 8.414062 19.371094 L 15.578125 19.371094 C 15.90625 19.371094 16.171875 19.636719 16.171875 19.960938 C 16.171875 20.289062 15.90625 20.554688 15.578125 20.554688 Z M 15.578125 20.554688 "/>
<path style=" stroke:none;fill-rule:nonzero;fill:rgb(0%,0%,0%);fill-opacity:1;" d="M 14.863281 18.257812 L 9.085938 18.257812 C 8.761719 18.257812 8.492188 17.992188 8.492188 17.664062 C 8.492188 17.335938 8.757812 17.070312 9.085938 17.070312 L 14.863281 17.070312 C 15.191406 17.070312 15.457031 17.335938 15.457031 17.664062 C 15.457031 17.992188 15.191406 18.257812 14.863281 18.257812 Z M 14.863281 18.257812 "/>
</g>
</svg>
